<svg width="33" height="30" viewBox="0 0 33 30" fill="none" xmlns="http://www.w3.org/2000/svg">
<g clip-path="url(#clip0_164_244)">
<path fill-rule="evenodd" clip-rule="evenodd" d="M9.45605 27.5002L13.7465 28.661V27.143L14.0968 26.7859H16.5484V28.5716V29.8216H13.9216L10.6819 28.393L9.45605 27.5002Z" fill="#CDBDB2"/>
<path fill-rule="evenodd" clip-rule="evenodd" d="M23.4653 27.5002L19.2625 28.661V27.143L18.9123 26.7859H16.4606V28.5716V29.8216H19.0874L22.327 28.393L23.4653 27.5002Z" fill="#CDBDB2"/>
<path fill-rule="evenodd" clip-rule="evenodd" d="M14.0968 24.1965L13.7466 27.1429L14.1843 26.7857H18.7374L19.2627 27.1429L18.9125 24.1965L18.212 23.75L14.7097 23.8394L14.0968 24.1965Z" fill="#393939"/>
<path fill-rule="evenodd" clip-rule="evenodd" d="M11.7324 4.28589L13.8338 9.28589L14.7971 23.8395H18.2118L19.2625 9.28589L21.1888 4.28589H11.7324Z" fill="#F89C35"/>
<path fill-rule="evenodd" clip-rule="evenodd" d="M2.53905 15.2679L0.0874023 22.5L6.21653 22.1428H10.1566V19.0179L9.98149 12.5894L9.1059 13.3036L2.53905 15.2679Z" fill="#F89D35"/>
<path fill-rule="evenodd" clip-rule="evenodd" d="M7.17969 16.0715L14.3595 16.2501L13.5716 20.0001L10.1567 19.1072L7.17969 16.0715Z" fill="#D87C30"/>
<path fill-rule="evenodd" clip-rule="evenodd" d="M7.17969 16.1609L10.1567 19.018V21.8752L7.17969 16.1609Z" fill="#EA8D3A"/>
<path fill-rule="evenodd" clip-rule="evenodd" d="M10.1567 19.1072L13.6591 20L14.7974 23.8394L14.0093 24.2857L10.1567 21.9643V19.1072Z" fill="#F89D35"/>
<path fill-rule="evenodd" clip-rule="evenodd" d="M10.1565 21.9644L9.45605 27.5001L14.0968 24.1966L10.1565 21.9644Z" fill="#EB8F35"/>
<path fill-rule="evenodd" clip-rule="evenodd" d="M14.3595 16.25L14.7973 23.8394L13.4839 19.9554L14.3595 16.25Z" fill="#EA8E3A"/>
<path fill-rule="evenodd" clip-rule="evenodd" d="M6.12891 22.0537L10.1566 21.9644L9.45615 27.5001L6.12891 22.0537Z" fill="#D87C30"/>
<path fill-rule="evenodd" clip-rule="evenodd" d="M2.0137 29.9109L9.45613 27.5001L6.12889 22.0537L0.0874023 22.5001L2.0137 29.9109Z" fill="#EB8F35"/>
<path fill-rule="evenodd" clip-rule="evenodd" d="M13.8342 9.28589L10.0692 12.5002L7.17969 16.0716L14.3595 16.3395L13.8342 9.28589Z" fill="#E8821E"/>
<path fill-rule="evenodd" clip-rule="evenodd" d="M9.45605 27.5L14.0968 24.1965L13.7465 27.0537V28.6608L10.5944 28.0357L9.45605 27.5Z" fill="#DFCEC3"/>
<path fill-rule="evenodd" clip-rule="evenodd" d="M23.4653 27.5L18.9123 24.1965L19.2625 27.0537V28.6608L22.4146 28.0357L23.4653 27.5Z" fill="#DFCEC3"/>
<path fill-rule="evenodd" clip-rule="evenodd" d="M12.4333 17.8572L13.3965 19.9108L9.98161 19.018L12.4333 17.8572Z" fill="#393939"/>
<path fill-rule="evenodd" clip-rule="evenodd" d="M1.92627 0.0893555L13.8343 9.2857L11.8205 4.28571L1.92627 0.0893555Z" fill="#E88F35"/>
<path fill-rule="evenodd" clip-rule="evenodd" d="M1.92616 0.0893555L0.350098 5.00007L1.22569 10.3572L0.612775 10.7144L1.48836 11.5179L0.787892 12.1429L1.75104 13.0358L1.13813 13.5715L2.53907 15.3572L9.10599 13.3036C12.3165 10.6846 13.8926 9.34531 13.8342 9.28578C13.7758 9.22626 9.80647 6.16078 1.92616 0.0893555Z" fill="#8E5A30"/>
<path fill-rule="evenodd" clip-rule="evenodd" d="M30.3828 15.2679L32.8345 22.5L26.7053 22.1428H22.7653V19.0179L22.9404 12.5894L23.816 13.3036L30.3828 15.2679Z" fill="#F89D35"/>
<path fill-rule="evenodd" clip-rule="evenodd" d="M25.7422 16.0715L18.5624 16.2501L19.3503 20.0001L22.7652 19.1072L25.7422 16.0715Z" fill="#D87C30"/>
<path fill-rule="evenodd" clip-rule="evenodd" d="M25.7422 16.1609L22.7652 19.018V21.8752L25.7422 16.1609Z" fill="#EA8D3A"/>
<path fill-rule="evenodd" clip-rule="evenodd" d="M22.7651 19.1072L19.2628 20L18.1244 23.8394L18.9125 24.2857L22.7651 21.9643V19.1072Z" fill="#F89D35"/>
<path fill-rule="evenodd" clip-rule="evenodd" d="M22.7653 21.9644L23.4658 27.5001L18.9128 24.2858L22.7653 21.9644Z" fill="#EB8F35"/>
<path fill-rule="evenodd" clip-rule="evenodd" d="M18.5624 16.25L18.1245 23.8394L19.438 19.9554L18.5624 16.25Z" fill="#EA8E3A"/>
<path fill-rule="evenodd" clip-rule="evenodd" d="M26.793 22.0537L22.7653 21.9644L23.4657 27.5001L26.793 22.0537Z" fill="#D87C30"/>
<path fill-rule="evenodd" clip-rule="evenodd" d="M30.9082 29.9109L23.4657 27.5001L26.793 22.0537L32.8345 22.5001L30.9082 29.9109Z" fill="#EB8F35"/>
<path fill-rule="evenodd" clip-rule="evenodd" d="M19.0877 9.28589L22.8527 12.5002L25.7422 16.0716L18.5624 16.3395L19.0877 9.28589Z" fill="#E8821E"/>
<path fill-rule="evenodd" clip-rule="evenodd" d="M20.4886 17.8572L19.5254 19.9108L22.9403 19.018L20.4886 17.8572Z" fill="#393939"/>
<path fill-rule="evenodd" clip-rule="evenodd" d="M30.9956 0.0893555L19.0876 9.2857L21.1014 4.28571L30.9956 0.0893555Z" fill="#E88F35"/>
<path fill-rule="evenodd" clip-rule="evenodd" d="M30.9957 0.0893555L32.5718 5.00007L31.6962 10.3572L32.3091 10.7144L31.4335 11.5179L32.134 12.1429L31.1708 13.0358L31.7837 13.5715L30.3828 15.3572L23.8159 13.3036C20.6054 10.6846 19.0293 9.34531 19.0877 9.28578C19.1461 9.22626 23.1154 6.16078 30.9957 0.0893555Z" fill="#8E5A30"/>
</g>
<defs>
<clipPath id="clip0_164_244">
<rect width="33" height="30" fill="white"/>
</clipPath>
</defs>
</svg>
