<svg width="39" height="39" viewBox="0 0 39 39" fill="none" xmlns="http://www.w3.org/2000/svg">
<path d="M39 19.5C39 30.2689 30.2689 39 19.5 39C8.73106 39 0 30.2689 0 19.5C0 8.73106 8.73106 0 19.5 0C30.2712 0 39 8.73106 39 19.5Z" fill="#2081E2"/>
<path d="M9.62062 20.1552L9.70477 20.023L14.7775 12.0874C14.8516 11.9711 15.0259 11.9832 15.082 12.1094C15.9295 14.0087 16.6607 16.3707 16.3181 17.8412C16.1719 18.4463 15.7712 19.2657 15.3204 20.023C15.2623 20.1332 15.1982 20.2414 15.1301 20.3456C15.098 20.3936 15.044 20.4217 14.9858 20.4217H9.76886C9.62863 20.4217 9.54652 20.2694 9.62062 20.1552Z" fill="white"/>
<path d="M32.2313 21.6298V22.8859C32.2313 22.958 32.1872 23.0222 32.1231 23.0502C31.7304 23.2185 30.3861 23.8356 29.8271 24.6129C28.4007 26.5983 27.3108 29.4372 24.8746 29.4372H14.7112C11.109 29.4372 8.18994 26.5082 8.18994 22.8939V22.7777C8.18994 22.6816 8.26807 22.6034 8.36427 22.6034H14.03C14.1422 22.6034 14.2243 22.7076 14.2143 22.8178C14.1742 23.1864 14.2424 23.5631 14.4166 23.9057C14.7533 24.5888 15.4504 25.0156 16.2037 25.0156H19.0085V22.8258H16.2358C16.0936 22.8258 16.0094 22.6615 16.0916 22.5453C16.1216 22.4993 16.1556 22.4512 16.1917 22.3971C16.4542 22.0245 16.8288 21.4454 17.2015 20.7863C17.4559 20.3416 17.7023 19.8667 17.9006 19.3899C17.9407 19.3038 17.9728 19.2156 18.0048 19.1294C18.0589 18.9772 18.115 18.835 18.1551 18.6927C18.1951 18.5725 18.2272 18.4463 18.2593 18.3281C18.3534 17.9234 18.3935 17.4947 18.3935 17.0499C18.3935 16.8756 18.3855 16.6933 18.3695 16.519C18.3614 16.3286 18.3374 16.1383 18.3133 15.948C18.2973 15.7797 18.2673 15.6134 18.2352 15.4391C18.1951 15.1847 18.1391 14.9323 18.0749 14.6778L18.0529 14.5817C18.0048 14.4074 17.9648 14.2411 17.9087 14.0668C17.7504 13.5198 17.5681 12.9869 17.3757 12.488C17.3056 12.2897 17.2255 12.0994 17.1453 11.9091C17.0271 11.6226 16.9069 11.3621 16.7968 11.1157C16.7406 11.0035 16.6925 10.9013 16.6445 10.7971C16.5904 10.6789 16.5343 10.5608 16.4782 10.4485C16.4381 10.3624 16.392 10.2823 16.36 10.2021L16.0174 9.56903C15.9693 9.48288 16.0495 9.3807 16.1436 9.40674L18.2873 9.98776H18.2933C18.2973 9.98776 18.2993 9.98975 18.3013 9.98975L18.5838 10.0679L18.8944 10.156L19.0085 10.1881V8.91391C19.0085 8.29884 19.5014 7.79999 20.1105 7.79999C20.415 7.79999 20.6914 7.92418 20.8898 8.12655C21.0881 8.32891 21.2123 8.60538 21.2123 8.91391V10.8052L21.4407 10.8692C21.4588 10.8753 21.4768 10.8833 21.4928 10.8953C21.5489 10.9374 21.629 10.9995 21.7312 11.0756C21.8114 11.1397 21.8975 11.2179 22.0017 11.298C22.2081 11.4643 22.4545 11.6787 22.7249 11.9251C22.797 11.9872 22.8672 12.0513 22.9313 12.1154C23.2799 12.4399 23.6706 12.8206 24.0432 13.2414C24.1474 13.3595 24.2496 13.4797 24.3538 13.606C24.4579 13.7342 24.5681 13.8604 24.6643 13.9866C24.7905 14.1549 24.9267 14.3292 25.0449 14.5115C25.101 14.5977 25.1651 14.6858 25.2192 14.772C25.3715 15.0024 25.5057 15.2408 25.6339 15.4792C25.688 15.5894 25.7441 15.7096 25.7922 15.8278C25.9345 16.1463 26.0467 16.4709 26.1188 16.7955C26.1408 16.8656 26.1569 16.9417 26.1649 17.0098V17.0258C26.1889 17.122 26.1969 17.2242 26.2049 17.3284C26.237 17.6609 26.2209 17.9935 26.1488 18.3281C26.1188 18.4703 26.0787 18.6045 26.0306 18.7468C25.9825 18.8831 25.9345 19.0253 25.8724 19.1595C25.7522 19.438 25.6099 19.7165 25.4416 19.9769C25.3875 20.0731 25.3234 20.1753 25.2593 20.2714C25.1892 20.3736 25.1171 20.4698 25.0529 20.564C24.9648 20.6842 24.8706 20.8103 24.7745 20.9225C24.6883 21.0407 24.6001 21.159 24.504 21.2631C24.3698 21.4214 24.2416 21.5717 24.1073 21.7159C24.0272 21.8101 23.941 21.9062 23.8529 21.9924C23.7667 22.0885 23.6786 22.1747 23.5985 22.2548C23.4642 22.3891 23.352 22.4932 23.2579 22.5794L23.0375 22.7818C23.0054 22.8098 22.9634 22.8258 22.9193 22.8258H21.2123V25.0156H23.36C23.8409 25.0156 24.2976 24.8453 24.6663 24.5328C24.7925 24.4226 25.3434 23.9457 25.9946 23.2265C26.0166 23.2025 26.0447 23.1844 26.0767 23.1764L32.0089 21.4615C32.1191 21.4294 32.2313 21.5136 32.2313 21.6298Z" fill="white"/>
</svg>
